# xmcd
#
# Track frame offsets:
#	150
#	11858
#	30280
#	45043
#	61908
#	77899
#	99229
#	117420
#	133429
#	137635
#	146792
#	166837
#
# Disc length: 2400 seconds
#
# Revision: 0
# Processed by: cddbd v1.4PL0 Copyright (c) Steve Scherf et al.
# Submitted via: dBpowerAMP V4.0
#
DISCID=9b095e0c
DTITLE=Porch Builder - Porch Builder
DYEAR=1900
DGENRE=
TTITLE0=money and doubt
TTITLE1=there she goes
TTITLE2=free gives
TTITLE3=the tree is gone
TTITLE4=am radio
TTITLE5=boss man
TTITLE6=woman
TTITLE7=moon boots
TTITLE8=surfin fast cars and chicks
TTITLE9=skinny man
TTITLE10=given time
TTITLE11=handed down
EXTD=
EXTT0=
EXTT1=
EXTT2=
EXTT3=
EXTT4=
EXTT5=
EXTT6=
EXTT7=
EXTT8=
EXTT9=
EXTT10=
EXTT11=
PLAYORDER=
